<svg id="svg" fill="#000000" stroke="#000000" width="32" height="32" version="1.1" viewBox="144 144 512 512" xmlns="http://www.w3.org/2000/svg">
    <g id="IconSvg_bgCarrier" stroke-width="0"></g>
    <g id="IconSvg_tracerCarrier" stroke-linecap="round" stroke-linejoin="round" stroke="#CCCCCC" stroke-width="0">
      <g xmlns="http://www.w3.org/2000/svg">
  <path d="m587.2 605.11c-3.4922 0-6.9883-1.3281-9.6914-3.9844l-382.93-382.93c-5.3633-5.3125-5.3633-14.023 0-19.336 5.3633-5.3633 13.973-5.3633 19.336 0l382.93 382.93c5.3633 5.3125 5.3633 14.023 0 19.336-2.6562 2.6562-6.1484 3.9844-9.6445 3.9844z"></path>
  <path d="m204.28 605.11c-3.4922 0-6.9883-1.3281-9.6914-3.9844-5.3633-5.3125-5.3633-14.023 0-19.336l382.93-382.93c5.3633-5.3633 13.973-5.3633 19.336 0 5.3633 5.3125 5.3633 14.023 0 19.336l-382.93 382.93c-2.6562 2.6562-6.1484 3.9844-9.6445 3.9844z"></path>
 </g>

      </g>
     <g id="IconSvg_iconCarrier">
      <g xmlns="http://www.w3.org/2000/svg">
  <path d="m587.2 605.11c-3.4922 0-6.9883-1.3281-9.6914-3.9844l-382.93-382.93c-5.3633-5.3125-5.3633-14.023 0-19.336 5.3633-5.3633 13.973-5.3633 19.336 0l382.93 382.93c5.3633 5.3125 5.3633 14.023 0 19.336-2.6562 2.6562-6.1484 3.9844-9.6445 3.9844z"></path>
  <path d="m204.28 605.11c-3.4922 0-6.9883-1.3281-9.6914-3.9844-5.3633-5.3125-5.3633-14.023 0-19.336l382.93-382.93c5.3633-5.3633 13.973-5.3633 19.336 0 5.3633 5.3125 5.3633 14.023 0 19.336l-382.93 382.93c-2.6562 2.6562-6.1484 3.9844-9.6445 3.9844z"></path>
 </g>

      </g>
      </svg>